<svg width="14" height="14" viewBox="0 0 14 14" fill="none" xmlns="http://www.w3.org/2000/svg">
<path d="M7 12.25C4.01625 12.25 1.51375 9.75625 0.16625 7.42C0.0175 7.1575 0.0175 6.83375 0.16625 6.57125C1.51375 4.24375 4.01625 1.75 7 1.75C9.98375 1.75 12.4862 4.24375 13.8338 6.58C13.9825 6.8425 13.9825 7.16625 13.8338 7.42875C12.495 9.765 9.9925 12.2587 7.00875 12.2587L7 12.25ZM0.93625 7C2.1 9.02125 4.3925 11.375 7 11.375C9.6075 11.375 11.9087 9.0125 13.0725 6.9825C11.9087 4.9875 9.61625 2.625 7 2.625C4.38375 2.625 2.1 4.97875 0.93625 7Z" fill="#717274"/>
<path d="M7 9.1875C5.7925 9.1875 4.8125 8.2075 4.8125 7C4.8125 5.7925 5.7925 4.8125 7 4.8125C8.2075 4.8125 9.1875 5.7925 9.1875 7C9.1875 8.2075 8.2075 9.1875 7 9.1875ZM7 5.6875C6.27375 5.6875 5.6875 6.27375 5.6875 7C5.6875 7.72625 6.27375 8.3125 7 8.3125C7.72625 8.3125 8.3125 7.72625 8.3125 7C8.3125 6.27375 7.72625 5.6875 7 5.6875Z" fill="#717274"/>
</svg>
