<svg width="14" height="14" viewBox="0 0 14 14" fill="none" xmlns="http://www.w3.org/2000/svg">
<path d="M13.5625 4.08624H0.4375C0.1925 4.08624 0 3.89374 0 3.64874C0 3.40374 0.1925 3.21124 0.4375 3.21124H13.5625C13.8075 3.21124 14 3.40374 14 3.64874C14 3.89374 13.8075 4.08624 13.5625 4.08624Z" fill="#717274"/>
<path d="M11.375 7.58624H2.625C2.38 7.58624 2.1875 7.39374 2.1875 7.14874C2.1875 6.90374 2.38 6.71124 2.625 6.71124H11.375C11.62 6.71124 11.8125 6.90374 11.8125 7.14874C11.8125 7.39374 11.62 7.58624 11.375 7.58624Z" fill="#717274"/>
<path d="M9.1875 11.0862H4.8125C4.5675 11.0862 4.375 10.8937 4.375 10.6487C4.375 10.4037 4.5675 10.2112 4.8125 10.2112H9.1875C9.4325 10.2112 9.625 10.4037 9.625 10.6487C9.625 10.8937 9.4325 11.0862 9.1875 11.0862Z" fill="#717274"/>
</svg>
