<svg width="14" height="14" viewBox="0 0 14 14" fill="none" xmlns="http://www.w3.org/2000/svg">
<g clip-path="url(#clip0_1_2694)">
<path d="M13.2913 14H0.708752C0.498752 14 0.306252 13.895 0.192502 13.72C0.0787518 13.545 0.0612518 13.3263 0.148752 13.1338L1.74125 9.54625C1.8375 9.3275 2.05625 9.17875 2.30125 9.17875H3.9375C4.1825 9.17875 4.375 9.37125 4.375 9.61625C4.375 9.86125 4.1825 10.0537 3.9375 10.0537H2.47625L1.11125 13.1162H12.8888L11.5238 10.0537H10.0625C9.8175 10.0537 9.625 9.86125 9.625 9.61625C9.625 9.37125 9.8175 9.17875 10.0625 9.17875H11.6988C11.9438 9.17875 12.1625 9.31875 12.2588 9.54625L13.8513 13.1338C13.9388 13.3263 13.9213 13.545 13.8075 13.72C13.6938 13.895 13.5013 14 13.2913 14Z" fill="#717274"/>
<path d="M7 5.6875C6.0375 5.6875 5.25 4.9 5.25 3.9375C5.25 2.975 6.0375 2.1875 7 2.1875C7.9625 2.1875 8.75 2.975 8.75 3.9375C8.75 4.9 7.9625 5.6875 7 5.6875ZM7 3.0625C6.51875 3.0625 6.125 3.45625 6.125 3.9375C6.125 4.41875 6.51875 4.8125 7 4.8125C7.48125 4.8125 7.875 4.41875 7.875 3.9375C7.875 3.45625 7.48125 3.0625 7 3.0625Z" fill="#717274"/>
<path d="M7 11.48L6.65 11.0075C6.1425 10.325 5.39875 9.28375 4.7075 8.19C4.2175 7.41125 3.8325 6.72 3.56125 6.1425C3.22875 5.43375 3.0625 4.87375 3.0625 4.48C2.7475 2.68625 3.96375 0.735 5.71375 0.20125C6.57125 -0.06125 7.48125 -0.07 8.2775 0.16625C9.0825 0.41125 9.80875 0.9975 10.3163 1.81125C10.8238 2.63375 11.0425 3.57 10.9288 4.45375V4.48C10.9288 4.8475 10.7625 5.4075 10.43 6.11625C10.1588 6.69375 9.77375 7.385 9.28375 8.16375C8.5925 9.26625 7.84 10.3075 7.34125 10.9812L6.99125 11.4537L7 11.48ZM7.07875 0.88375C6.71125 0.88375 6.335 0.93625 5.9675 1.05C4.64625 1.4525 3.68375 2.98375 3.92 4.3225V4.43625C3.92875 4.59375 3.9725 4.96125 4.34875 5.76625C4.6025 6.3175 4.97 6.97375 5.4425 7.72625C5.9675 8.56625 6.53625 9.38 7 10.01C7.455 9.38 8.02375 8.56625 8.5575 7.72625C9.03 6.97375 9.3975 6.3175 9.65125 5.76625C10.0275 4.96125 10.0625 4.59375 10.0625 4.47125V4.3575C10.1588 3.68375 9.975 2.9225 9.58125 2.28375C9.1875 1.65375 8.6275 1.19 8.0325 1.015C7.735 0.9275 7.41125 0.88375 7.07875 0.88375Z" fill="#717274"/>
</g>
<defs>
<clipPath id="clip0_1_2694">
<rect width="14" height="14" fill="white"/>
</clipPath>
</defs>
</svg>
