<svg width="14" height="14" viewBox="0 0 14 14" fill="none" xmlns="http://www.w3.org/2000/svg">
<path d="M10.0625 11.375H3.9375C2.00375 11.375 0.4375 9.80875 0.4375 7.875V7.4375C0.4375 5.74875 1.81125 4.375 3.5 4.375C3.745 4.375 3.9375 4.5675 3.9375 4.8125C3.9375 5.0575 3.745 5.25 3.5 5.25C2.2925 5.25 1.3125 6.23 1.3125 7.4375V7.875C1.3125 9.31875 2.49375 10.5 3.9375 10.5H10.0625C11.5063 10.5 12.6875 9.31875 12.6875 7.875C12.6875 6.43125 11.5063 5.25 10.0625 5.25H8.1375C7.8925 5.25 7.7 5.0575 7.7 4.8125C7.7 4.5675 7.8925 4.375 8.1375 4.375H10.0625C11.9963 4.375 13.5625 5.94125 13.5625 7.875C13.5625 9.80875 11.9963 11.375 10.0625 11.375Z" fill="#717274"/>
<path d="M9.1875 6.99999C9.09125 6.99999 8.995 6.96499 8.91625 6.90374L6.72875 5.15374C6.62375 5.06624 6.5625 4.94374 6.5625 4.81249C6.5625 4.68124 6.62375 4.54999 6.72875 4.47124L8.91625 2.72124C9.10875 2.57249 9.38 2.59874 9.52875 2.79124C9.6775 2.98374 9.65125 3.25499 9.45875 3.40374L7.7 4.81249L9.45875 6.22124C9.65125 6.36999 9.6775 6.64999 9.52875 6.83374C9.44125 6.93874 9.31875 6.99999 9.1875 6.99999Z" fill="#717274"/>
</svg>
