<svg width="14" height="14" viewBox="0 0 14 14" fill="none" xmlns="http://www.w3.org/2000/svg">
<path d="M8.74126 9.38C8.74126 8.53125 7.99751 8.3125 7.32376 8.14625V6.9125C7.64751 6.9475 7.98876 7.0525 8.31251 7.245L8.56626 6.62375C8.23376 6.41375 7.77876 6.27375 7.32376 6.2475V5.565H6.82501V6.25625C5.87126 6.3525 5.41626 6.895 5.41626 7.51625C5.41626 8.365 6.14251 8.5925 6.82501 8.75V9.975C6.36126 9.93125 5.89751 9.75625 5.60001 9.51125L5.32001 10.1325C5.63501 10.4038 6.22126 10.605 6.82501 10.64V11.3225H7.32376V10.64C8.28626 10.5438 8.74126 10.0013 8.74126 9.38ZM6.20376 7.49C6.20376 7.21875 6.38751 7 6.82501 6.93V8.02375C6.46626 7.91875 6.20376 7.7875 6.20376 7.49ZM7.32376 9.975V8.89C7.69126 8.995 7.96251 9.135 7.96251 9.4325C7.96251 9.695 7.77001 9.905 7.32376 9.975Z" fill="#717274"/>
<path d="M6.965 14C5.39875 14 3.84125 13.5188 2.63375 12.5475C1.84625 11.9263 1.44375 11.2087 1.3825 10.3688C1.2775 8.75 2.52 6.67625 5.53 3.4825C5.06625 2.87875 4.75125 2.38 4.55 1.7675C4.41875 1.37375 4.445 0.9625 4.61125 0.6475C4.75125 0.385 4.97875 0.20125 5.25875 0.11375C5.74 -0.035 6.335 0.14875 6.85125 0.58625C7.2975 0.9625 7.7525 1.12875 8.925 0.9275C9.0125 0.72625 9.10875 0.51625 9.205 0.28875C9.30125 0.06125 9.555 -0.04375 9.77375 0.0525C9.9925 0.14875 10.1062 0.4025 10.01 0.62125C9.54625 1.72375 9.205 2.40625 8.42625 3.4825C11.4538 6.65875 12.705 8.72375 12.6 10.3512C12.5475 11.1912 12.1275 11.9087 11.3313 12.5387C10.0975 13.51 8.5225 14 6.95625 14H6.965ZM6.3875 3.8675C3.43875 6.95625 2.16125 8.95125 2.2575 10.3162C2.30125 10.9025 2.59 11.3925 3.17625 11.865C5.29375 13.5538 8.645 13.5538 10.7975 11.8475C11.3925 11.375 11.69 10.8763 11.7338 10.29C11.8212 8.925 10.5087 6.8775 7.58625 3.85875C7.14875 3.57875 6.93875 3.5525 6.3875 3.85875V3.8675ZM5.6175 0.945C5.6175 0.945 5.5475 0.945 5.5125 0.9625C5.45125 0.98 5.41625 1.00625 5.39 1.05875C5.3375 1.16375 5.3375 1.33875 5.39 1.505C5.53 1.95125 5.76625 2.35375 6.23 2.9575C6.79 2.695 7.2275 2.695 7.74375 2.94C8.0325 2.5375 8.26 2.205 8.4525 1.86375C7.5075 1.93375 6.88625 1.75 6.29125 1.25125C6.06375 1.05875 5.80125 0.945 5.6175 0.945Z" fill="#717274"/>
</svg>
