<svg width="20" height="20" viewBox="0 0 20 20" fill="none" xmlns="http://www.w3.org/2000/svg">
<path d="M19.8565 19.1083L14.8639 14.12C16.2341 12.5801 16.9911 10.5907 16.9913 8.52955C16.999 6.58523 16.3396 4.69708 15.1231 3.18031C13.9066 1.66353 12.2067 0.609922 10.3071 0.195363C8.40743 -0.219196 6.42308 0.0303838 4.68528 0.902437C2.94747 1.77449 1.56138 3.21625 0.758378 4.98702C-0.0446189 6.75779 -0.215923 8.75042 0.273063 10.6323C0.76205 12.5141 1.88174 14.1713 3.4452 15.3271C5.00867 16.483 6.9213 17.0676 8.86381 16.9833C10.8063 16.8991 12.6611 16.1511 14.1187 14.8642L19.1081 19.8567C19.2073 19.9526 19.3403 20.0057 19.4783 20.0045C19.6163 20.0033 19.7483 19.9479 19.8458 19.8503C19.9434 19.7527 19.9988 19.6207 20 19.4827C20.0012 19.3447 19.9481 19.2118 19.8523 19.1125M1.11992 8.52955C1.11964 7.31192 1.41945 6.113 1.99282 5.03883C2.5662 3.96465 3.39546 3.04834 4.40726 2.37095C5.41906 1.69355 6.58221 1.27595 7.79382 1.15509C9.00543 1.03423 10.2281 1.21383 11.3538 1.678C12.4795 2.14218 13.4734 2.87662 14.2477 3.81636C15.022 4.7561 15.5527 5.87218 15.793 7.06586C16.0332 8.25954 15.9756 9.49404 15.6252 10.6602C15.2748 11.8263 14.6424 12.888 13.7839 13.7516C13.7776 13.7568 13.7681 13.7589 13.7618 13.7663C13.7555 13.7737 13.7534 13.7821 13.7471 13.7884C12.7094 14.8205 11.389 15.522 9.9529 15.8042C8.51675 16.0864 7.02918 15.9367 5.67806 15.374C4.32694 14.8113 3.17287 13.8608 2.3616 12.6426C1.55033 11.4244 1.11825 9.99316 1.11992 8.52955Z" fill="#717274"/>
<path d="M19.8565 19.1083L14.8639 14.12C16.2341 12.5801 16.9911 10.5907 16.9913 8.52955C16.999 6.58523 16.3396 4.69708 15.1231 3.18031C13.9066 1.66353 12.2067 0.609922 10.3071 0.195363C8.40743 -0.219196 6.42308 0.0303838 4.68528 0.902437C2.94747 1.77449 1.56138 3.21625 0.758378 4.98702C-0.0446189 6.75779 -0.215923 8.75042 0.273063 10.6323C0.76205 12.5141 1.88174 14.1713 3.4452 15.3271C5.00867 16.483 6.9213 17.0676 8.86381 16.9833C10.8063 16.8991 12.6611 16.1511 14.1187 14.8642L19.1081 19.8567C19.2073 19.9526 19.3403 20.0057 19.4783 20.0045C19.6163 20.0033 19.7483 19.9479 19.8458 19.8503C19.9434 19.7527 19.9988 19.6207 20 19.4827C20.0012 19.3447 19.9481 19.2118 19.8523 19.1125M1.11992 8.52955C1.11964 7.31192 1.41945 6.113 1.99282 5.03883C2.5662 3.96465 3.39546 3.04834 4.40726 2.37095C5.41906 1.69355 6.58221 1.27595 7.79382 1.15509C9.00543 1.03423 10.2281 1.21383 11.3538 1.678C12.4795 2.14218 13.4734 2.87662 14.2477 3.81636C15.022 4.7561 15.5527 5.87218 15.793 7.06586C16.0332 8.25954 15.9756 9.49404 15.6252 10.6602C15.2748 11.8263 14.6424 12.888 13.7839 13.7516C13.7776 13.7568 13.7681 13.7589 13.7618 13.7663C13.7555 13.7737 13.7534 13.7821 13.7471 13.7884C12.7094 14.8205 11.389 15.522 9.9529 15.8042C8.51675 16.0864 7.02918 15.9367 5.67806 15.374C4.32694 14.8113 3.17287 13.8608 2.3616 12.6426C1.55033 11.4244 1.11825 9.99316 1.11992 8.52955Z" fill="url(#paint0_linear_1_2765)"/>
<defs>
<linearGradient id="paint0_linear_1_2765" x1="0" y1="10.0022" x2="20" y2="10.0022" gradientUnits="userSpaceOnUse">
<stop stop-color="#FF284F"/>
<stop offset="0.15" stop-color="#FF439B"/>
<stop offset="0.44" stop-color="#FF45CF"/>
<stop offset="0.83" stop-color="#309BE0"/>
<stop offset="1" stop-color="#00A5B9"/>
</linearGradient>
</defs>
</svg>
