<svg width="20" height="20" viewBox="0 0 20 20" fill="none" xmlns="http://www.w3.org/2000/svg">
<path d="M19.525 10.2625C19.2625 10.2625 19.05 10.05 19.05 9.7875V3.1875C19.05 2.7875 18.7 2.4375 18.3 2.4375H6.32498C6.06248 2.4375 5.84998 2.225 5.84998 1.9625C5.84998 1.7 6.06248 1.4875 6.32498 1.4875H18.3C19.225 1.4875 20 2.2625 20 3.1875V9.7875C20 10.05 19.7875 10.2625 19.525 10.2625Z" fill="#717274"/>
<path d="M17.7375 12.6125C17.475 12.6125 17.2625 12.4 17.2625 12.1375V5.1625C17.2625 4.675 16.9 4.3125 16.4125 4.3125H3.77499C3.51249 4.3125 3.29999 4.1 3.29999 3.8375C3.29999 3.575 3.51249 3.3625 3.77499 3.3625H16.4125C17.4375 3.3625 18.2 4.1375 18.2 5.15V12.125C18.2 12.3875 17.9875 12.6 17.725 12.6L17.7375 12.6125Z" fill="#717274"/>
<path d="M4.625 18.75C4.3625 18.75 4.0625 18.5375 4.0625 18.275V15.6375H1.7875C0.7625 15.6375 0 14.8625 0 13.85V6.8625C0 5.8375 0.775 5.075 1.7875 5.075H14.4375C15.4625 5.075 16.225 5.85 16.225 6.8625V13.75C16.2875 13.825 16.325 13.925 16.325 14.0375C16.325 15.0625 15.55 15.825 14.5375 15.825H7.5625L4.975 18.6C4.8875 18.7 4.7625 18.75 4.625 18.75ZM1.7875 6.0125C1.3 6.0125 0.9375 6.375 0.9375 6.8625V13.8375C0.9375 14.325 1.3 14.6875 1.7875 14.6875H4.15C4.6 14.6875 5 15.0875 5 15.5375V17.175L6.925 15.1125C7.175 14.8625 7.425 14.8625 7.55 14.8625H14.525C14.9375 14.8625 15.25 14.6125 15.35 14.25C15.3125 14.175 15.2875 14.1 15.2875 14.0125V6.8625C15.2875 6.375 14.925 6.0125 14.4375 6.0125H1.7875Z" fill="#717274"/>
</svg>
