<svg width="20" height="20" viewBox="0 0 20 20" fill="none" xmlns="http://www.w3.org/2000/svg">
<g clip-path="url(#clip0_1_2775)">
<path d="M11.5625 9.8375C11.45 9.8375 11.3375 9.8 11.25 9.725C11.0375 9.55 11 9.2375 11.1625 9.0125L12.9375 6.7625C13.1125 6.55 13.425 6.5125 13.65 6.675C13.875 6.8375 13.9 7.1625 13.7375 7.3875L11.9625 9.6375C11.8625 9.7625 11.7125 9.825 11.5625 9.825V9.8375Z" fill="#717274"/>
<path d="M4.71249 14.4C4.56249 14.4 4.39999 14.325 4.29999 14.1875C2.02499 11.05 2.72499 6.61249 5.84999 4.29999C8.96249 1.99999 13.4 2.68749 15.7375 5.84999C17.5 8.29999 17.5625 11.4875 15.875 13.975C15.725 14.2 15.4125 14.2625 15.175 14.1125C14.95 13.9625 14.8875 13.65 15.0375 13.4125C16.475 11.275 16.4375 8.53749 14.925 6.43749C12.925 3.72499 9.12499 3.12499 6.44999 5.09999C3.76249 7.08749 3.16249 10.8875 5.11249 13.5875C5.27499 13.8125 5.22499 14.125 4.99999 14.2875C4.91249 14.35 4.81249 14.3875 4.69999 14.3875L4.71249 14.4Z" fill="#717274"/>
<path d="M10 20C4.4875 20 0 15.5125 0 10C0 4.4875 4.4875 0 10 0C15.5125 0 20 4.3875 20 10C20 15.6125 15.6125 20 10 20ZM10 1C5.0375 1 1.0125 5.0375 1.0125 10C1.0125 14.9625 5.05 18.9875 10 18.9875C14.95 18.9875 18.9875 15.0375 18.9875 10C18.9875 4.9625 15.0375 1 10 1Z" fill="#717274"/>
<path d="M9.99998 14.775C8.26248 14.775 6.84998 13.3625 6.84998 11.625C6.84998 9.88751 8.26248 8.47501 9.99998 8.47501C11.7375 8.47501 13.15 9.88751 13.15 11.625C13.15 13.3625 11.7625 14.775 9.99998 14.775ZM9.99998 9.48751C8.83748 9.48751 7.86248 10.4625 7.86248 11.625C7.86248 12.7875 8.83748 13.7625 9.99998 13.7625C11.1625 13.7625 12.1375 12.825 12.1375 11.625C12.1375 10.425 11.1625 9.48751 9.99998 9.48751Z" fill="#717274"/>
</g>
<defs>
<clipPath id="clip0_1_2775">
<rect width="20" height="20" fill="white"/>
</clipPath>
</defs>
</svg>
