<svg width="14" height="14" viewBox="0 0 14 14" fill="none" xmlns="http://www.w3.org/2000/svg">
<g clip-path="url(#clip0_1_2691)">
<path d="M10.666 0.0350342C9.73847 0.210034 8.97722 0.918784 8.72347 1.84628C8.60972 2.24878 8.64472 2.94003 8.79347 3.31628C8.81097 3.34253 8.35597 3.63128 6.80722 4.55878C5.70472 5.21503 4.78596 5.76628 4.76847 5.76628C4.75097 5.76628 4.67221 5.71378 4.59347 5.63503C4.30471 5.35503 3.91972 5.14503 3.49097 5.03128C3.16722 4.94378 2.59846 4.94378 2.27471 5.03128C1.42596 5.25878 0.734714 5.95003 0.507214 6.79878C0.419714 7.11378 0.419714 7.71753 0.507214 8.03253C0.883464 9.41503 2.32721 10.1938 3.67472 9.74753C4.07721 9.61628 4.54972 9.29253 4.78596 8.98628C4.83846 8.92503 4.89096 8.87253 4.89971 8.87253C4.90846 8.87253 5.78347 9.31003 6.84222 9.84378C8.31222 10.5963 8.74972 10.8325 8.74097 10.8588C8.74097 10.885 8.70597 11.0163 8.67972 11.1475C8.46097 12.3725 9.25722 13.5975 10.491 13.93C10.806 14.0175 11.4097 14.0175 11.7247 13.93C12.416 13.7463 13.0022 13.2563 13.3172 12.6263C13.5097 12.2413 13.5622 12.0138 13.5622 11.5413C13.5622 11.0688 13.5097 10.85 13.3172 10.4563C12.696 9.18753 11.1122 8.69753 9.90472 9.39753C9.65097 9.54628 9.34472 9.79128 9.23097 9.94878C9.18722 10.01 9.13472 10.0625 9.12597 10.0625C9.11722 10.0625 8.24222 9.62503 7.18347 9.08253L5.26722 8.11128L5.28472 8.01503C5.38097 7.41128 5.36346 7.08753 5.24096 6.68503C5.20597 6.57128 5.19722 6.48378 5.20597 6.47503C5.22346 6.45753 6.13347 5.90628 7.22722 5.25003L9.22222 4.05128L9.37972 4.20878C9.67722 4.50628 10.0535 4.71628 10.491 4.83878C10.8147 4.92628 11.3835 4.92628 11.7072 4.83878C12.3897 4.65503 12.9847 4.16503 13.2997 3.53503C13.4922 3.15003 13.5447 2.92253 13.5447 2.45003C13.5447 1.97753 13.4922 1.75878 13.2997 1.36503C12.9935 0.735034 12.3897 0.236284 11.7072 0.0612842C11.4185 -0.0174658 10.9285 -0.0349658 10.6485 0.0175342L10.666 0.0350342ZM11.4535 0.857534C12.1972 1.01503 12.7572 1.70628 12.7572 2.45878C12.7572 3.34253 12.0047 4.10378 11.1122 4.10378C10.3597 4.10378 9.66847 3.54378 9.51097 2.80003C9.39722 2.24003 9.55472 1.71503 9.95722 1.30378C10.3685 0.892534 10.8935 0.735034 11.4535 0.857534ZM3.23722 5.81003C3.98097 5.96753 4.54097 6.65878 4.54097 7.41128C4.54097 8.29503 3.78847 9.05628 2.89596 9.05628C2.14346 9.05628 1.45221 8.49628 1.29471 7.75253C1.18096 7.19253 1.33846 6.66753 1.74096 6.25628C2.15221 5.84503 2.67721 5.68753 3.23722 5.81003ZM11.4535 9.94878C12.1972 10.1063 12.7572 10.7975 12.7572 11.55C12.7572 12.4338 12.0047 13.195 11.1122 13.195C10.3597 13.195 9.66847 12.635 9.51097 11.8913C9.39722 11.3313 9.55472 10.8063 9.95722 10.395C10.3685 9.98378 10.8935 9.82628 11.4535 9.94878Z" fill="#E51058"/>
</g>
<defs>
<clipPath id="clip0_1_2691">
<rect width="14" height="14" fill="white"/>
</clipPath>
</defs>
</svg>
