<svg width="14" height="14" viewBox="0 0 14 14" fill="none" xmlns="http://www.w3.org/2000/svg">
<g clip-path="url(#clip0_1_2481)">
<path d="M5.25 10.9375C5.005 10.9375 4.8125 10.745 4.8125 10.5V5.25C4.8125 5.005 5.005 4.8125 5.25 4.8125C5.495 4.8125 5.6875 5.005 5.6875 5.25V10.5C5.6875 10.745 5.495 10.9375 5.25 10.9375Z" fill="#717274"/>
<path d="M8.75 10.9375C8.505 10.9375 8.3125 10.745 8.3125 10.5V5.25C8.3125 5.005 8.505 4.8125 8.75 4.8125C8.995 4.8125 9.1875 5.005 9.1875 5.25V10.5C9.1875 10.745 8.995 10.9375 8.75 10.9375Z" fill="#717274"/>
<path d="M9.625 2.625H4.375V1.3125C4.375 0.58625 4.96125 0 5.6875 0H8.3125C9.03875 0 9.625 0.58625 9.625 1.3125V2.625ZM5.25 1.75H8.75V1.3125C8.75 1.0675 8.5575 0.875 8.3125 0.875H5.6875C5.4425 0.875 5.25 1.0675 5.25 1.3125V1.75Z" fill="#717274"/>
<path d="M10.0625 14H3.9375C2.975 14 2.1875 13.2125 2.1875 12.25V2.625C2.1875 2.38 2.38 2.1875 2.625 2.1875C2.87 2.1875 3.0625 2.38 3.0625 2.625V12.25C3.0625 12.7312 3.45625 13.125 3.9375 13.125H10.0625C10.5437 13.125 10.9375 12.7312 10.9375 12.25V2.625C10.9375 2.38 11.13 2.1875 11.375 2.1875C11.62 2.1875 11.8125 2.38 11.8125 2.625V12.25C11.8125 13.2125 11.025 14 10.0625 14Z" fill="#717274"/>
<path d="M12.6875 2.625H1.3125C1.0675 2.625 0.875 2.4325 0.875 2.1875C0.875 1.9425 1.0675 1.75 1.3125 1.75H12.6875C12.9325 1.75 13.125 1.9425 13.125 2.1875C13.125 2.4325 12.9325 2.625 12.6875 2.625Z" fill="#717274"/>
</g>
<defs>
<clipPath id="clip0_1_2481">
<rect width="14" height="14" fill="white"/>
</clipPath>
</defs>
</svg>
